<?xml version="1.0" encoding="utf-8"?>
<svg version="1.1" id="svg2" width="900px" height="600px" viewBox="0 0 450 300" xmlns="http://www.w3.org/2000/svg" xmlns:xlink="http://www.w3.org/1999/xlink" xmlns:bx="https://boxy-svg.com">
  <defs id="defs6">
    <linearGradient id="gradient-0" bx:pinned="true">
      <stop offset="0" style="stop-color: rgb(241, 148, 94);"/>
      <stop offset="0.2509" style="stop-color: rgb(241, 148, 94);"/>
      <stop offset="1" style="stop-color: rgb(228, 86, 69);"/>
    </linearGradient>
    <linearGradient id="gradient-0-0" gradientUnits="userSpaceOnUse" x1="155.847" y1="29.795" x2="155.847" y2="73.916" gradientTransform="matrix(0, 1.45673, 1.45673, 0, 57.680618, -141.659826)" xlink:href="#gradient-0"/>
    <linearGradient id="gradient-0-1" gradientUnits="userSpaceOnUse" x1="156.001" y1="27.428" x2="156.001" y2="77.749" gradientTransform="matrix(0, 1.31077, 1.31077, 0, 62.669545, -119.455547)" xlink:href="#gradient-0"/>
    <linearGradient id="gradient-0-2" gradientUnits="userSpaceOnUse" x1="142.782" y1="30.148" x2="142.782" y2="73.467" gradientTransform="matrix(0, 1.458585, 1.458585, 0, 58.269037, -127.117828)" xlink:href="#gradient-0"/>
    <linearGradient x1="0" y1="0" x2="1" y2="0" gradientUnits="userSpaceOnUse" gradientTransform="matrix(27.360979, 0, 0, -27.360979, 112.987541, 84.16037)" spreadMethod="pad" id="linearGradient100">
      <stop style="stop-opacity:1;stop-color:#f1945e" offset="0" id="stop90"/>
      <stop style="stop-opacity:1;stop-color:#f1945e" offset="0" id="stop92"/>
      <stop style="stop-opacity:1;stop-color:#f1945e" offset="0.2509" id="stop94"/>
      <stop style="stop-opacity:1;stop-color:#e45645" offset="0.9949" id="stop96"/>
      <stop style="stop-opacity:1;stop-color:#e45645" offset="1" id="stop98"/>
    </linearGradient>
    <linearGradient x1="0" y1="0" x2="1" y2="0" gradientUnits="userSpaceOnUse" gradientTransform="matrix(27.360979, 0, 0, -27.360979, 112.987541, 84.16037)" spreadMethod="pad" id="linearGradient126">
      <stop style="stop-opacity:1;stop-color:#f1945e" offset="0" id="stop116"/>
      <stop style="stop-opacity:1;stop-color:#f1945e" offset="0" id="stop118"/>
      <stop style="stop-opacity:1;stop-color:#f1945e" offset="0.2509" id="stop120"/>
      <stop style="stop-opacity:1;stop-color:#e45645" offset="0.9949" id="stop122"/>
      <stop style="stop-opacity:1;stop-color:#e45645" offset="1" id="stop124"/>
    </linearGradient>
    <linearGradient x1="0" y1="0" x2="1" y2="0" gradientUnits="userSpaceOnUse" gradientTransform="matrix(27.360979, 0, 0, -27.360979, 112.987541, 84.16037)" spreadMethod="pad" id="linearGradient152">
      <stop style="stop-opacity:1;stop-color:#f1945e" offset="0" id="stop142"/>
      <stop style="stop-opacity:1;stop-color:#f1945e" offset="0" id="stop144"/>
      <stop style="stop-opacity:1;stop-color:#f1945e" offset="0.2509" id="stop146"/>
      <stop style="stop-opacity:1;stop-color:#e45645" offset="0.9949" id="stop148"/>
      <stop style="stop-opacity:1;stop-color:#e45645" offset="1" id="stop150"/>
    </linearGradient>
    <linearGradient x1="0" y1="0" x2="1" y2="0" gradientUnits="userSpaceOnUse" gradientTransform="matrix(27.360979, 0, 0, -27.360979, 112.987541, 84.16037)" spreadMethod="pad" id="linearGradient178">
      <stop style="stop-opacity:1;stop-color:#f1945e" offset="0" id="stop168"/>
      <stop style="stop-opacity:1;stop-color:#f1945e" offset="0" id="stop170"/>
      <stop style="stop-opacity:1;stop-color:#f1945e" offset="0.2509" id="stop172"/>
      <stop style="stop-opacity:1;stop-color:#e45645" offset="0.9949" id="stop174"/>
      <stop style="stop-opacity:1;stop-color:#e45645" offset="1" id="stop176"/>
    </linearGradient>
    <linearGradient x1="0" y1="0" x2="1" y2="0" gradientUnits="userSpaceOnUse" gradientTransform="matrix(27.360979, 0, 0, -27.360979, 112.987541, 84.16037)" spreadMethod="pad" id="linearGradient204">
      <stop style="stop-opacity:1;stop-color:#f1945e" offset="0" id="stop194"/>
      <stop style="stop-opacity:1;stop-color:#f1945e" offset="0" id="stop196"/>
      <stop style="stop-opacity:1;stop-color:#f1945e" offset="0.2509" id="stop198"/>
      <stop style="stop-opacity:1;stop-color:#e45645" offset="0.9949" id="stop200"/>
      <stop style="stop-opacity:1;stop-color:#e45645" offset="1" id="stop202"/>
    </linearGradient>
    <linearGradient x1="0" y1="0" x2="1" y2="0" gradientUnits="userSpaceOnUse" gradientTransform="matrix(27.360979, 0, 0, -27.360979, 112.987541, 84.16037)" spreadMethod="pad" id="linearGradient230">
      <stop style="stop-opacity:1;stop-color:#f1945e" offset="0" id="stop220"/>
      <stop style="stop-opacity:1;stop-color:#f1945e" offset="0" id="stop222"/>
      <stop style="stop-opacity:1;stop-color:#f1945e" offset="0.2509" id="stop224"/>
      <stop style="stop-opacity:1;stop-color:#e45645" offset="0.9949" id="stop226"/>
      <stop style="stop-opacity:1;stop-color:#e45645" offset="1" id="stop228"/>
    </linearGradient>
    <linearGradient x1="0" y1="0" x2="1" y2="0" gradientUnits="userSpaceOnUse" gradientTransform="matrix(27.360979, 0, 0, -27.360979, 112.987541, 84.16037)" spreadMethod="pad" id="linearGradient256">
      <stop style="stop-opacity:1;stop-color:#f1945e" offset="0" id="stop246"/>
      <stop style="stop-opacity:1;stop-color:#f1945e" offset="0" id="stop248"/>
      <stop style="stop-opacity:1;stop-color:#f1945e" offset="0.2509" id="stop250"/>
      <stop style="stop-opacity:1;stop-color:#e45645" offset="0.9949" id="stop252"/>
      <stop style="stop-opacity:1;stop-color:#e45645" offset="1" id="stop254"/>
    </linearGradient>
  </defs>
  <g id="g8" transform="matrix(4.054563, 0, 0, -4.054563, -297.943878, 491.106995)" style="" bx:origin="0.5 0.500063">
    <path d="M 108.264 109.132 C 98.15 107.911 90.917 99.745 92.11 90.893 C 92.668 86.755 94.968 83.2 98.293 80.711 C 100.534 79.034 102.145 76.714 102.938 74.092 C 105.323 66.211 114.178 60.701 124.941 59.354 C 127.07 59.088 129.037 58.966 130.846 58.966 C 139.341 58.966 144.345 61.649 146.344 64.624 C 152.163 73.287 146.239 73.592 157.075 82.396 C 158.583 83.622 159.184 84.349 160.001 87.333 C 162.018 94.697 156.822 103.228 147.727 105.107 C 138.396 107.035 139.596 104.562 130.889 104.268 C 127.229 104.145 124.147 104.763 120.338 106.915 C 117.753 108.375 112.397 109.74 108.264 109.132 Z" style="fill-opacity: 0; fill: rgb(255, 255, 255); stroke-width: 0.6px; paint-order: fill; stroke: url(#gradient-0-1);" id="path538"/>
    <path d="M 98.973 90.8 C 98.973 85.692 101.577 81.107 105.703 77.975 C 108.184 76.092 110.265 73.732 111.721 70.979 C 113.988 66.695 118.49 63.775 123.674 63.775 C 126.645 63.775 129.394 64.734 131.625 66.361 C 133.762 67.92 136.328 68.738 138.943 68.738 C 139.569 68.738 143.435 68.3 144.791 68.3 C 156.488 68.3 165.972 75.869 165.972 85.207 C 165.972 94.544 156.488 102.113 144.791 102.113 C 143.294 102.113 139.181 101.598 138.563 101.598 C 136.082 101.598 133.648 102.413 131.608 103.89 C 128.156 106.39 123.699 107.896 118.834 107.896 C 107.865 107.896 98.973 100.241 98.973 90.8 Z" style="paint-order: fill; fill: rgb(255, 255, 255); fill-opacity: 0; stroke: url(#gradient-0-0); stroke-width: 0.6px;" id="path564"/>
    <path d="M 125.654 101.742 C 123.365 100.356 121.603 99.904 118.16 99.674 C 114.498 99.429 112.255 101.375 109.077 101.26 C 103.292 101.051 98.478 97.01 98.597 91.769 C 98.712 86.702 98.36 85.365 97.115 82.899 C 96.092 80.872 95.452 78.65 95.452 76.281 C 95.452 67.76 103.169 60.852 112.687 60.852 C 117.38 60.852 121.58 62.592 124.741 65.255 C 127.128 67.266 129.103 68.437 134.347 68.538 C 144.084 68.725 151.582 76.514 151.582 86.355 C 151.582 96.195 143.865 104.171 134.347 104.171 C 131.176 104.171 128.206 103.287 125.654 101.742 Z" style="fill: rgb(255, 255, 255); fill-opacity: 0; stroke-width: 0.6px; stroke: url(#gradient-0-2);" id="path590"/>
    <g transform="matrix(1.006117, 0, 0, 1.008523, -0.683227, -0.654754)">
      <title>Text</title>
      <path d="M 114.817 90.326 C 114.431 90.219 113.702 90.125 113.266 90.107 C 113.215 90.104 113.161 90.103 113.109 90.104 C 113.038 90.104 112.982 90.044 112.988 89.974 L 113.018 89.58 C 113.024 89.51 113.087 89.46 113.156 89.471 C 113.212 89.479 113.267 89.486 113.332 89.495 C 113.42 89.507 113.57 89.525 113.719 89.541 C 113.823 89.553 113.89 89.436 113.829 89.351 C 113.445 88.817 113.18 88.258 113.18 87.533 C 113.18 86.612 113.872 86.168 114.682 86.168 C 115.925 86.168 116.381 87.01 116.426 87.996 C 116.431 88.112 116.58 88.152 116.645 88.057 C 116.72 87.947 116.798 87.844 116.879 87.745 C 116.931 87.682 117.026 87.686 117.072 87.751 L 117.333 88.126 C 117.367 88.175 117.36 88.241 117.318 88.282 C 116.654 88.928 116.438 89.641 116.337 90.23 C 116.324 90.3 116.255 90.343 116.186 90.324 L 115.795 90.217 C 115.728 90.198 115.691 90.128 115.713 90.063 C 115.729 90.014 115.745 89.965 115.762 89.916 C 115.763 89.912 115.764 89.907 115.765 89.903 C 116.167 88.056 115.818 86.85 114.697 86.85 C 114.212 86.85 113.832 87.083 113.832 87.674 C 113.832 88.638 114.5 89.413 114.851 89.681 C 114.856 89.686 114.862 89.689 114.867 89.692 C 114.91 89.717 114.96 89.738 115.008 89.758 C 115.066 89.781 115.096 89.847 115.076 89.906 L 114.962 90.248 C 114.945 90.298 114.899 90.33 114.849 90.33 C 114.838 90.33 114.827 90.329 114.817 90.326" style="fill:url(#linearGradient100);stroke:none" id="path102"/>
      <path d="M 123.91 90.364 C 123.819 90.346 123.709 90.332 123.619 90.324 C 123.29 90.304 122.162 90.289 121.889 90.289 C 121.788 90.289 121.689 90.292 121.609 90.298 C 121.539 90.302 121.48 90.247 121.481 90.176 L 121.487 89.783 C 121.488 89.712 121.55 89.657 121.622 89.665 C 121.717 89.677 121.826 89.686 121.91 89.692 C 122.083 89.703 122.495 89.725 122.816 89.739 C 122.928 89.744 122.986 89.608 122.903 89.531 C 122.405 89.075 121.499 88.338 120.917 87.887 C 120.86 87.844 120.855 87.761 120.903 87.71 L 121.202 87.395 C 121.249 87.346 121.326 87.346 121.374 87.394 C 121.888 87.909 122.422 88.357 123.163 88.357 C 123.74 88.357 124.109 88.059 124.109 87.659 C 124.109 87.02 123.348 86.719 122.053 86.855 C 121.97 86.863 121.903 86.786 121.925 86.705 L 122.034 86.301 C 122.047 86.251 122.09 86.215 122.142 86.212 C 123.953 86.085 124.802 86.668 124.802 87.655 C 124.802 88.362 124.195 88.889 123.305 88.889 C 123.292 88.889 123.278 88.889 123.264 88.888 C 123.149 88.885 123.098 89.032 123.188 89.103 C 123.512 89.354 123.827 89.602 124.04 89.761 C 124.042 89.762 124.044 89.763 124.046 89.765 C 124.089 89.793 124.148 89.831 124.207 89.868 C 124.268 89.905 124.283 89.986 124.24 90.042 L 124.029 90.319 C 124.006 90.349 123.971 90.366 123.934 90.366 C 123.926 90.366 123.918 90.365 123.91 90.364" style="fill:url(#linearGradient126);stroke:none" id="path128"/>
      <path d="M 132.447 90.834 L 132.272 90.764 C 132.201 90.736 132.175 90.651 132.216 90.587 C 132.313 90.438 132.412 90.26 132.491 90.109 C 132.52 90.053 132.587 90.031 132.645 90.055 L 132.823 90.132 C 132.888 90.16 132.916 90.237 132.882 90.299 C 132.801 90.448 132.689 90.64 132.592 90.788 C 132.569 90.824 132.531 90.843 132.492 90.843 C 132.477 90.843 132.461 90.84 132.447 90.834 M 131.843 90.605 L 131.668 90.532 C 131.601 90.503 131.576 90.42 131.614 90.357 C 131.684 90.246 131.755 90.115 131.819 89.994 C 131.852 89.932 131.825 89.856 131.761 89.828 L 131.563 89.743 C 131.494 89.712 131.469 89.626 131.512 89.564 C 131.813 89.133 132.1 88.433 132.239 87.923 C 132.259 87.851 132.337 87.815 132.404 87.845 L 132.818 88.034 C 132.874 88.06 132.902 88.124 132.882 88.182 C 132.734 88.609 132.43 89.282 132.164 89.727 C 132.127 89.789 132.153 89.87 132.22 89.899 C 132.285 89.927 132.312 90.005 132.278 90.067 C 132.195 90.22 132.084 90.411 131.99 90.559 C 131.968 90.594 131.929 90.614 131.89 90.614 C 131.874 90.614 131.858 90.611 131.843 90.605 M 129.534 90.397 C 129.531 90.136 129.496 89.847 129.443 89.549 C 129.434 89.496 129.389 89.456 129.335 89.451 C 129.113 89.431 128.912 89.419 128.775 89.414 C 128.633 89.411 128.504 89.403 128.369 89.407 C 128.297 89.409 128.239 89.348 128.245 89.277 L 128.283 88.854 C 128.289 88.785 128.352 88.736 128.42 88.745 C 128.567 88.768 128.745 88.792 128.857 88.812 C 128.859 88.812 128.861 88.813 128.864 88.813 C 128.923 88.819 129.012 88.83 129.118 88.843 C 129.202 88.853 129.271 88.773 129.247 88.691 C 129.064 88.053 128.762 87.212 128.354 86.607 C 128.312 86.544 128.339 86.458 128.41 86.43 L 128.831 86.261 C 128.886 86.239 128.949 86.26 128.979 86.31 C 129.404 87.03 129.747 88.111 129.937 88.85 C 129.949 88.9 129.993 88.936 130.045 88.94 C 130.154 88.948 130.247 88.954 130.312 88.954 C 130.625 88.954 130.802 88.898 130.802 88.493 C 130.802 87.993 130.731 87.381 130.595 87.093 C 130.514 86.926 130.387 86.875 130.216 86.875 C 130.12 86.875 129.937 86.902 129.772 86.939 C 129.689 86.957 129.614 86.886 129.627 86.802 L 129.692 86.397 C 129.7 86.347 129.739 86.307 129.789 86.298 C 129.95 86.269 130.149 86.243 130.312 86.243 C 130.696 86.243 130.974 86.355 131.141 86.709 C 131.359 87.149 131.43 87.968 131.43 88.564 C 131.43 89.293 131.05 89.53 130.514 89.53 C 130.441 89.53 130.351 89.526 130.245 89.519 C 130.166 89.515 130.104 89.586 130.12 89.663 C 130.146 89.794 130.173 89.922 130.196 90.032 C 130.213 90.118 130.234 90.221 130.257 90.319 C 130.272 90.389 130.224 90.457 130.152 90.464 L 129.666 90.513 C 129.661 90.513 129.657 90.514 129.653 90.514 C 129.589 90.514 129.535 90.463 129.534 90.397" style="fill:url(#linearGradient152);stroke:none" id="path154"/>
      <path d="M 139.432 90.403 C 139.364 90.391 139.263 90.379 139.119 90.365 C 138.831 90.339 137.749 90.32 137.481 90.32 C 137.382 90.32 137.265 90.322 137.156 90.33 C 137.083 90.336 137.023 90.279 137.025 90.207 L 137.038 89.818 C 137.039 89.748 137.1 89.695 137.169 89.702 C 137.262 89.712 137.364 89.721 137.456 89.727 C 137.641 89.738 138.028 89.756 138.336 89.768 C 138.451 89.771 138.505 89.628 138.417 89.555 C 138.156 89.338 137.827 89.071 137.623 88.904 C 137.351 88.678 136.819 88.23 136.455 87.934 C 136.4 87.889 136.396 87.808 136.444 87.757 L 136.723 87.469 C 136.772 87.419 136.853 87.422 136.9 87.473 C 137.409 88.035 137.902 88.402 138.634 88.402 C 139.231 88.402 139.686 88.095 139.686 87.639 C 139.686 87.393 139.596 87.196 139.418 87.051 C 139.354 86.999 139.255 87.03 139.231 87.109 C 139.108 87.513 138.746 87.816 138.19 87.816 C 137.653 87.816 137.284 87.437 137.284 87.027 C 137.284 86.521 137.815 86.197 138.518 86.197 C 139.742 86.197 140.349 86.83 140.349 87.629 C 140.349 88.367 139.696 88.904 138.837 88.904 C 138.812 88.904 138.789 88.903 138.766 88.902 C 138.651 88.899 138.599 89.043 138.687 89.115 C 138.97 89.345 139.288 89.603 139.478 89.738 C 139.559 89.798 139.642 89.85 139.725 89.902 C 139.783 89.939 139.798 90.018 139.757 90.074 L 139.551 90.356 C 139.528 90.387 139.492 90.405 139.453 90.405 C 139.446 90.405 139.439 90.404 139.432 90.403 M 137.881 87.088 C 137.881 87.215 138.002 87.331 138.194 87.331 C 138.426 87.331 138.596 87.178 138.66 86.93 C 138.68 86.857 138.628 86.783 138.552 86.779 C 138.501 86.776 138.448 86.774 138.391 86.774 C 138.088 86.774 137.881 86.901 137.881 87.088" style="fill:url(#linearGradient178);stroke:none" id="path180"/>
      <path d="M 117.212 81.688 C 117.237 81.521 117.249 81.332 117.249 81.144 C 117.249 80.709 117.203 79.379 117.203 78.701 C 117.203 77.842 117.734 77.477 118.564 77.477 C 119.656 77.477 120.358 78.081 120.709 78.557 C 120.741 78.602 120.741 78.664 120.706 78.707 L 120.404 79.075 C 120.354 79.135 120.261 79.133 120.215 79.07 C 119.851 78.574 119.344 78.161 118.574 78.161 C 118.18 78.161 117.871 78.327 117.871 78.838 C 117.871 79.47 117.912 80.598 117.937 81.144 C 117.945 81.305 117.963 81.503 117.986 81.684 C 117.994 81.755 117.939 81.817 117.868 81.818 L 117.333 81.825 C 117.332 81.825 117.332 81.825 117.331 81.825 C 117.258 81.825 117.203 81.76 117.212 81.688 M 119.894 81.648 L 119.681 81.549 C 119.614 81.518 119.591 81.433 119.633 81.372 C 119.761 81.188 119.867 81.008 119.983 80.787 C 120.012 80.73 120.083 80.707 120.141 80.734 L 120.364 80.842 C 120.426 80.872 120.45 80.948 120.416 81.009 C 120.313 81.198 120.162 81.433 120.043 81.607 C 120.02 81.641 119.982 81.659 119.944 81.659 C 119.927 81.659 119.91 81.655 119.894 81.648 M 119.215 81.373 L 119.002 81.282 C 118.933 81.253 118.908 81.168 118.949 81.105 C 119.073 80.918 119.174 80.73 119.283 80.505 C 119.311 80.447 119.381 80.421 119.439 80.447 L 119.667 80.547 C 119.731 80.575 119.757 80.652 119.724 80.713 C 119.623 80.907 119.478 81.149 119.363 81.328 C 119.34 81.363 119.302 81.382 119.262 81.382 C 119.247 81.382 119.23 81.379 119.215 81.373" style="fill:url(#linearGradient204);stroke:none" id="path206"/>
      <path d="M 126.213 81.777 C 126.139 81.614 126.065 81.48 126.01 81.366 C 125.753 80.904 124.781 78.973 124.376 77.928 C 124.351 77.864 124.385 77.793 124.449 77.772 L 124.925 77.609 C 124.99 77.587 125.06 77.623 125.079 77.688 C 125.166 77.98 125.314 78.441 125.428 78.697 C 125.61 79.106 125.894 79.46 126.238 79.46 C 126.419 79.46 126.521 79.354 126.536 79.177 C 126.552 78.97 126.546 78.555 126.566 78.286 C 126.587 77.917 126.85 77.584 127.411 77.584 C 128.161 77.584 128.626 78.125 128.893 78.946 C 128.909 78.994 128.893 79.046 128.855 79.077 L 128.517 79.352 C 128.45 79.407 128.349 79.374 128.326 79.29 C 128.172 78.738 127.914 78.277 127.517 78.277 C 127.35 78.277 127.209 78.352 127.189 78.55 C 127.163 78.762 127.178 79.167 127.168 79.394 C 127.148 79.814 126.921 80.051 126.541 80.051 C 126.447 80.051 126.351 80.041 126.256 80.017 C 126.155 79.993 126.074 80.103 126.125 80.193 C 126.353 80.597 126.617 81.067 126.814 81.356 C 126.841 81.394 126.867 81.434 126.892 81.472 C 126.934 81.535 126.908 81.621 126.837 81.65 L 126.367 81.839 C 126.353 81.844 126.337 81.847 126.323 81.847 C 126.277 81.847 126.233 81.821 126.213 81.777" style="fill:url(#linearGradient230);stroke:none" id="path232"/>
      <path d="M 132.612 81.688 C 132.637 81.521 132.649 81.332 132.649 81.144 C 132.649 80.709 132.603 79.379 132.603 78.701 C 132.603 77.842 133.134 77.477 133.963 77.477 C 135.056 77.477 135.758 78.081 136.108 78.557 C 136.141 78.602 136.14 78.664 136.105 78.707 L 135.803 79.075 C 135.753 79.135 135.661 79.133 135.614 79.07 C 135.25 78.574 134.743 78.161 133.974 78.161 C 133.579 78.161 133.271 78.327 133.271 78.838 C 133.271 79.47 133.312 80.598 133.337 81.144 C 133.345 81.305 133.362 81.503 133.384 81.684 C 133.393 81.755 133.339 81.817 133.268 81.818 L 132.732 81.825 C 132.731 81.825 132.731 81.825 132.73 81.825 C 132.657 81.825 132.602 81.76 132.612 81.688 M 135.293 81.648 L 135.081 81.549 C 135.013 81.518 134.991 81.433 135.033 81.372 C 135.16 81.188 135.266 81.008 135.382 80.787 C 135.412 80.73 135.482 80.707 135.54 80.734 L 135.763 80.842 C 135.825 80.872 135.85 80.948 135.816 81.009 C 135.713 81.198 135.562 81.433 135.442 81.607 C 135.419 81.641 135.382 81.659 135.344 81.659 C 135.327 81.659 135.31 81.655 135.293 81.648 M 134.615 81.373 L 134.401 81.282 C 134.332 81.253 134.307 81.168 134.348 81.105 C 134.472 80.918 134.574 80.73 134.683 80.505 C 134.711 80.447 134.779 80.421 134.839 80.447 L 135.067 80.547 C 135.13 80.575 135.157 80.652 135.124 80.713 C 135.022 80.907 134.877 81.149 134.762 81.328 C 134.74 81.363 134.701 81.382 134.662 81.382 C 134.646 81.382 134.63 81.379 134.615 81.373" style="fill:url(#linearGradient256);stroke:none" id="path258"/>
    </g>
  </g>
</svg>